<?xml version="1.0" encoding="UTF-8"?>
<svg xmlns="http://www.w3.org/2000/svg" xmlns:xlink="http://www.w3.org/1999/xlink" width="30px" height="30px" viewBox="0 0 30 30" version="1.1">
<g id="surface1">
<path style=" stroke:none;fill-rule:nonzero;fill:rgb(100%,100%,100%);fill-opacity:1;" d="M 5.71875 7.6875 L 5.625 7.78125 L 5.25 7.78125 L 5.15625 7.875 L 5.0625 7.875 L 4.96875 7.96875 L 4.875 7.96875 L 4.59375 8.25 L 4.5 8.25 L 4.40625 8.34375 L 4.40625 8.4375 L 4.21875 8.625 L 4.21875 8.71875 L 4.125 8.8125 L 4.125 8.90625 L 4.03125 9 L 4.03125 9.1875 L 3.9375 9.28125 L 3.9375 26.25 L 4.03125 26.34375 L 4.03125 26.53125 L 4.125 26.625 L 4.125 26.71875 L 4.21875 26.8125 L 4.21875 26.90625 L 4.40625 27.09375 L 4.40625 27.1875 L 4.5 27.28125 L 4.59375 27.28125 L 4.875 27.5625 L 4.96875 27.5625 L 5.0625 27.65625 L 5.25 27.65625 L 5.34375 27.75 L 5.625 27.75 L 5.71875 27.84375 L 19.125 27.84375 L 19.21875 27.75 L 19.59375 27.75 L 19.6875 27.65625 L 19.78125 27.65625 L 19.875 27.5625 L 19.96875 27.5625 L 20.0625 27.46875 L 20.15625 27.46875 L 20.625 27 L 20.625 26.90625 L 20.71875 26.8125 L 20.71875 26.71875 L 20.8125 26.625 L 20.8125 26.4375 L 20.90625 26.34375 L 20.90625 25.96875 L 21 25.875 L 21 24.9375 L 20.90625 24.84375 L 10.40625 24.84375 L 10.3125 24.75 L 9.9375 24.75 L 9.84375 24.65625 L 9.65625 24.65625 L 9.5625 24.5625 L 9.375 24.5625 L 9.28125 24.46875 L 9.1875 24.46875 L 9.09375 24.375 L 9 24.375 L 8.90625 24.28125 L 8.8125 24.28125 L 8.53125 24 L 8.4375 24 L 7.6875 23.25 L 7.6875 23.15625 L 7.5 22.96875 L 7.5 22.875 L 7.3125 22.6875 L 7.3125 22.5 L 7.21875 22.40625 L 7.21875 22.3125 L 7.125 22.21875 L 7.125 22.03125 L 7.03125 21.9375 L 7.03125 21.75 L 6.9375 21.65625 L 6.9375 21 L 6.84375 20.90625 L 6.84375 7.6875 Z M 5.71875 7.6875 "/>
<path style=" stroke:none;fill-rule:nonzero;fill:rgb(100%,100%,100%);fill-opacity:1;" d="M 10.96875 2.625 L 10.875 2.71875 L 10.40625 2.71875 L 10.3125 2.8125 L 10.125 2.8125 L 10.03125 2.90625 L 9.9375 2.90625 L 9.75 3.09375 L 9.65625 3.09375 L 9.375 3.375 L 9.375 3.46875 L 9.1875 3.65625 L 9.1875 3.75 L 9.09375 3.84375 L 9.09375 4.03125 L 9 4.125 L 9 4.59375 L 8.90625 4.6875 L 8.90625 20.8125 L 9 20.90625 L 9 21.375 L 9.09375 21.46875 L 9.09375 21.5625 L 9.1875 21.65625 L 9.1875 21.75 L 9.28125 21.84375 L 9.28125 21.9375 L 9.75 22.40625 L 9.84375 22.40625 L 10.03125 22.59375 L 10.21875 22.59375 L 10.3125 22.6875 L 10.5 22.6875 L 10.59375 22.78125 L 24.375 22.78125 L 24.46875 22.6875 L 24.65625 22.6875 L 24.75 22.59375 L 24.84375 22.59375 L 24.9375 22.5 L 25.03125 22.5 L 25.21875 22.3125 L 25.3125 22.3125 L 25.59375 22.03125 L 25.59375 21.9375 L 25.6875 21.84375 L 25.6875 21.75 L 25.875 21.5625 L 25.875 21.28125 L 25.96875 21.1875 L 25.96875 8.90625 L 25.875 8.8125 L 25.875 8.71875 L 25.6875 8.53125 L 25.6875 8.4375 L 20.15625 2.90625 L 20.0625 2.90625 L 19.875 2.71875 L 19.59375 2.71875 L 19.5 2.625 Z M 10.96875 2.625 "/>
</g>
</svg>
